<?xml version="1.0" encoding="utf-8"?>
<!-- Generator: Adobe Illustrator 21.1.0, SVG Export Plug-In . SVG Version: 6.00 Build 0)  -->
<svg version="1.1" id="Warstwa_1" xmlns="http://www.w3.org/2000/svg" xmlns:xlink="http://www.w3.org/1999/xlink" x="0px" y="0px"
	 viewBox="0 0 1944 596" style="enable-background:new 0 0 1944 596;" xml:space="preserve">
<style type="text/css">
	.st0{fill:#FF0000;}
	.st1{fill:#FFFFFF;}
</style>
<rect class="st0" width="1944" height="596"/>
<g>
	<path class="st0" d="M324.8-528.4c0,17-3.9,28.3-11.8,33.9c-7.9,5.5-21.2,8.3-39.8,8.3c-6.3,0-13.8-0.9-22.5-2.6
		c-8.7-1.7-17.1-4.3-25.1-7.8c-8-3.5-14.8-7.7-20.4-12.8c-5.5-5-8.3-10.9-8.3-17.5c0-0.3,0.2-2,0.7-5s1.2-6.2,2.1-9.5
		c0.9-3.3,2.1-6.3,3.5-9c1.4-2.7,2.9-4,4.5-4c3.1,0,5,0.9,5.4,2.6c0.5,1.7,0.7,4.7,0.7,8.8c0,5.7,2,10.7,5.9,15.2
		c3.9,4.4,8.8,8.2,14.5,11.4c5.7,3.2,11.8,5.5,18.2,7.1c6.5,1.6,12.2,2.4,17.3,2.4c4.1,0,8.3-0.2,12.6-0.7c4.3-0.5,8.1-1.5,11.6-3.1
		c3.5-1.6,6.2-3.8,8.3-6.6c2-2.8,3.1-6.6,3.1-11.4c0-4.1-0.4-8.3-1.2-12.6c-0.8-4.3-2.4-9.9-4.7-16.8c-2.4-6.9-5.8-15.9-10.2-26.8
		c-4.4-10.9-10.1-25-17.1-42.4c-14.8-36.6-24.5-64-28.9-82.2c-4.4-18.2-6.8-27.9-7.1-29.1c-2.5,0.3-5.4,1.1-8.5,2.4
		c-3.2,1.3-6.4,2.6-9.7,4c-3.3,1.4-6.6,2.8-9.7,4c-3.2,1.3-5.8,2.4-8,3.3c-6.6,2.5-12.6,5.4-18,8.8c-5.4,3.3-10.1,6.5-14.2,9.5
		c-4.1,3-7.6,5.5-10.4,7.6c-2.8,2.1-5.2,3.1-7.1,3.1c-4.7,0-7.6-2.2-8.5-6.6c-0.9-4.4-1.4-8.2-1.4-11.4c0-3.5,3.9-7.5,11.8-12.1
		c7.9-4.6,17.8-9.2,29.8-14c12-4.7,25-9.4,39.1-14c14-4.6,27.2-8.6,39.5-12.1c12.3-3.5,22.7-6.3,31.3-8.5c8.5-2.2,13.3-3.3,14.2-3.3
		c2.2,0,3.5,0.6,4,1.9c0.5,1.3,0.7,2.4,0.7,3.3c0,1.9-2.3,4.1-6.9,6.6c-4.6,2.5-9.9,5.2-16.1,8c-6.2,2.8-12.6,5.5-19.2,8.1
		c-6.6,2.5-12,4.6-16.1,6.2l-5.2,1.9c1.6,2.5,3,4.9,4.3,7.1c1.3,2.2,2.6,5,4,8.5c1.4,3.5,3.2,8,5.2,13.5c2,5.5,5,12.7,8.8,21.6
		c6.9,17,13.7,34.1,20.4,51.1s12.6,32.9,17.8,47.6c5.2,14.7,9.3,27.6,12.3,38.8C323.3-542.5,324.8-534.1,324.8-528.4z"/>
	<path class="st0" d="M451.3-597.1c0,6.9-0.9,13.6-2.8,19.9c-1.9,6.3-4.4,11.8-7.6,16.6c-3.2,4.7-6.9,8.5-11.1,11.1
		c-4.3,2.7-8.9,4-14,4c-8.8,0-15.8-2.5-20.8-7.6c-5.1-5-8.9-10.9-11.6-17.5c-2.7-6.6-4.4-13.3-5.2-20.1c-0.8-6.8-1.2-11.9-1.2-15.4
		c0-5.7,0.9-12.1,2.6-19.2c1.7-7.1,4.1-13.7,7.1-19.7c3-6,6.4-11,10.2-15.2c3.8-4.1,7.7-6.2,11.8-6.2c0.9,0,2.4,0.3,4.5,0.9
		c2,0.6,4.2,1.6,6.4,2.8c2.2,1.3,4.2,2.8,5.9,4.7s2.9,4.1,3.5,6.6c3.5,0.3,6.9,1.6,10.4,3.8c3.5,2.2,5.4,3.9,5.7,5.2
		c2.5,8.2,4.2,16.4,5,24.6C450.9-609.2,451.3-602.4,451.3-597.1z M430-605.6c0-4.7-0.5-9.7-1.4-14.9c-1-5.2-2.8-10.5-5.7-15.9
		c-0.6,0.3-1.4,0.5-2.4,0.5c-1.3,0-2.3-0.2-3.1-0.5c-0.8-0.3-1.5-0.5-2.1-0.5c-3.8,0-6.8,1-9,3.1c-2.2,2.1-3.9,4.7-5,8
		s-1.8,6.9-2.1,10.7c-0.3,3.8-0.5,7.4-0.5,10.9c0,3.5,0.1,7.3,0.5,11.6c0.3,4.3,1,8.3,2.1,12.1c1.1,3.8,2.6,7,4.5,9.7
		c1.9,2.7,4.4,4,7.6,4c3.2,0,5.8-1.7,8.1-5c2.2-3.3,3.9-7.2,5.2-11.6c1.3-4.4,2.1-8.8,2.6-13C429.7-600.6,430-603.7,430-605.6z"/>
	<path class="st0" d="M650.7-582.4c1.6,1.6,2.4,2.5,2.4,2.8c0,0.6-0.9,2.5-2.6,5.7c-1.7,3.2-4,6.5-6.9,9.9c-2.8,3.5-5.9,6.6-9.2,9.2
		c-3.3,2.7-6.6,4-9.7,4c-6.6,0-12-1.3-16.1-4c-4.1-2.7-7.5-6.1-10.2-10.2c-2.7-4.1-4.7-8.6-6.2-13.5c-1.4-4.9-2.6-9.6-3.5-14
		c-0.6-2.2-1.3-3.3-1.9-3.3c-0.9,0-2.8,3.4-5.7,10.2c-2.8,6.8-5.9,14.2-9.2,22.3c-3.3,8-6.5,15.5-9.5,22.3c-3,6.8-5,10.2-5.9,10.2
		c-5.7,0-10.5-2.4-14.5-7.3c-3.9-4.9-7.1-10.6-9.5-17.1c-2.4-6.5-4.2-13.1-5.4-19.9c-1.3-6.8-2-12.1-2.4-15.9
		c-0.9-8.5-3-22.7-6.2-42.6c-3.2-19.9-5.8-44-8-72.5c-0.6-6-1.3-11.4-2.1-16.3c-0.8-4.9-1.7-10.3-2.6-16.3c-1-6-1.8-12.8-2.4-20.4
		c-0.6-7.6-0.9-16.9-0.9-27.9c0-0.6,0.1-2.7,0.5-6.2c0.3-3.5,0.8-7.3,1.4-11.4c0.6-4.1,1.6-7.7,3.1-10.9c1.4-3.2,3.1-4.7,5-4.7
		c2.2,0,4.3,1.3,6.1,4c1.9,2.7,3.6,5.8,5,9.2c1.4,3.5,2.4,6.8,3.1,9.9c0.6,3.2,1,5.4,1,6.6c0,4.7-0.3,9.2-1,13.3
		c-0.6,4.1-0.9,7.9-0.9,11.4c0,4.7,0.4,10.7,1.2,18c0.8,7.3,1.8,14.7,3.1,22.3s2.4,14.9,3.3,22c0.9,7.1,1.7,12.9,2.4,17.3
		c0,0.3,0.3,2.5,0.9,6.6c0.6,4.1,1.3,9.2,2.1,15.4c0.8,6.2,1.6,12.8,2.4,19.9c0.8,7.1,1.7,14,2.6,20.8c1,6.8,1.8,12.8,2.6,18
		c0.8,5.2,1.3,8.9,1.7,11.1c0,0.9,0.2,2.3,0.7,4c0.5,1.7,0.9,3.7,1.4,5.9c0.5,2.2,1,4.3,1.6,6.2c0.6,1.9,1.4,3.3,2.4,4.3
		c1.9-3.8,4.3-9.6,7.3-17.5c3-7.9,6.2-15.9,9.5-24.2c3.3-8.2,6.5-15.4,9.5-21.6c3-6.2,5.6-9.2,7.8-9.2c2.5,0,4.6,0.5,6.2,1.4
		c1.6,0.9,3.6,1.7,6.1,2.4c3.2,1.3,4.7,2.9,4.7,5c0,2.1,0.3,4.5,0.9,7.3c0.6,3.8,1.7,8.8,3.1,14.9c1.4,6.2,3.1,12.2,5,18
		c1.9,5.8,4.1,10.8,6.6,14.9c2.5,4.1,5.1,6.2,7.6,6.2c1.3,0,3-1.7,5.2-5s5.2-5.1,9-5.4c0.6,0,1.7,0.4,3.3,1.2
		C647.5-584.7,649.1-583.6,650.7-582.4z"/>
	<path class="st0" d="M823.1-553c0,1.9-0.6,3.8-1.9,5.7s-2.8,3.6-4.5,5.2c-1.7,1.6-3.6,2.9-5.7,4c-2,1.1-3.9,1.7-5.4,1.7
		c-5.4,0-12.2-1.2-20.6-3.6c-8.4-2.4-15.1-6.1-20.1-11.1c-5.4-5.4-10.1-11.8-14.2-19.2c-4.1-7.4-8.7-18.4-13.7-32.9
		c-3.5,13.9-7.5,27.6-12.1,41.2c-4.6,13.6-11.9,26-22,37.4c-0.6,0.6-1.6,1-2.8,1c-2.2,0-4.6-1.1-7.1-3.3c-2.5-2.2-3.8-4.4-3.8-6.6
		c0-2.2-0.2-7.3-0.7-15.4c-0.5-8-1-17-1.7-27c-0.6-9.9-1.2-20-1.7-30.3c-0.5-10.3-0.7-18.7-0.7-25.3c0-3.2,0.1-7.3,0.5-12.6
		c0.3-5.2,1.3-9.7,2.8-13.5c0.3-0.6,1.5-1.9,3.5-3.8c2-1.9,4.3-2.8,6.9-2.8c2.2,0,3.5,1.4,3.8,4.3c0.3,2.8,0.5,6,0.5,9.5v74.8
		c0,1.6,0.2,3.8,0.7,6.6c0.5,2.8,1.2,4.9,2.1,6.2c3.5-7.6,6.7-16.5,9.7-26.8c3-10.3,5.9-20,8.8-29.4c2.8-9.3,5.7-17.2,8.5-23.7
		c2.8-6.5,5.7-9.7,8.5-9.7c3.2,0,5.7,0.6,7.6,1.9c1.9,1.3,3.5,3.8,4.7,7.6c1.6,9.2,2.8,17.3,3.8,24.4c0.9,7.1,2.1,13.5,3.5,19.2
		s3.5,11,6.2,15.9c2.7,4.9,6.4,9.4,11.1,13.5c4.4,4.1,9.4,7.1,14.9,9c5.5,1.9,10.3,2.8,14.4,2.8c1.9,0,3.9-0.4,6.2-1.2
		c2.2-0.8,3.8-1.2,4.7-1.2c1.3,0,2.4,1.1,3.5,3.3C822.5-555.1,823.1-553.6,823.1-553z"/>
	<path class="st0" d="M1200.1-530.7c0,2.2-1,3.9-2.8,5.2c-2.8,1.9-7.7,4.6-14.7,8.1c-6.9,3.5-14.6,7.1-23,10.9
		c-8.4,3.8-17.1,7.7-26.3,11.8c-9.2,4.1-17.5,7.7-25.1,10.9c-7.6,3.2-14,5.8-19.2,7.8c-5.2,2-8,3.1-8.3,3.1c-2.5,0-5.3-2.8-8.3-8.5
		c-3-5.7-5.9-13.3-8.8-23c-2.8-9.6-5.5-20.8-8-33.6c-2.5-12.8-4.8-26.3-6.9-40.5c-2.1-14.2-3.6-28.7-4.7-43.3
		c-1.1-14.7-1.7-28.8-1.7-42.4c0-20.2,1-36,3.1-47.4c2-11.4,4.4-19.9,7.1-25.6c2.7-5.7,5.1-9.2,7.3-10.7c2.2-1.4,3.5-2.1,3.8-2.1
		c2.5,0,4.6,1.1,6.2,3.3c1.6,2.2,2.4,4.4,2.4,6.6c0,1.3-0.6,3.5-1.9,6.6c-1.3,3.2-2.6,7.6-4,13.3c-1.4,5.7-2.7,13-3.8,21.8
		c-1.1,8.8-1.7,19.6-1.7,32.2c0,11.4,0.6,23.2,1.7,35.5c1.1,12.3,2.6,24.5,4.5,36.5c1.9,12,4,23.4,6.4,34.1
		c2.4,10.7,4.8,20.2,7.3,28.4c2.5,8.2,4.9,14.8,7.1,19.7c2.2,4.9,4.2,7.3,6.1,7.3c0.3,0,2.4-0.8,6.2-2.4c3.8-1.6,8.5-3.6,14.2-5.9
		c5.7-2.4,11.9-4.7,18.7-7.1c6.8-2.4,13.7-4.5,20.6-6.4c3.2-0.9,6.9-2,11.1-3.1c4.3-1.1,8.3-2.1,12.1-3.1c3.8-1,7.2-1.7,10.2-2.4
		c3-0.6,4.8-0.9,5.4-0.9C1197.5-536,1200.1-534.2,1200.1-530.7z"/>
	<path class="st0" d="M1357.3-544.5c0.3,0.6,0.5,1.6,0.5,2.8c0,1.9-1.4,4.7-4.3,8.5c-0.9,1.3-3,3.3-6.2,6.2
		c-3.2,2.8-7.4,5.7-12.8,8.5c-5.4,2.8-11.9,5.4-19.7,7.6c-7.7,2.2-16.8,3.3-27.2,3.3c-7.3,0-14.4-1.7-21.3-5
		c-7-3.3-13.1-8.2-18.5-14.7s-9.8-14.5-13.3-24.2c-3.5-9.6-5.2-20.9-5.2-33.9c0-12.3,1.6-23.8,4.7-34.6c3.2-10.7,7.2-20.2,12.1-28.4
		s10.3-14.7,16.4-19.4c6-4.7,11.8-7.1,17.5-7.1c5,0,10.2,1,15.4,3.1c5.2,2.1,9.9,4.7,14.2,7.8c4.3,3.2,7.6,6.7,10.2,10.7
		c2.5,3.9,3.8,8,3.8,12.1c0,4.7-2.1,9.6-6.4,14.7c-4.3,5.1-9.4,9.7-15.4,14c-6,4.3-12,7.7-18,10.4c-6,2.7-10.7,4-14.2,4
		c-1.9,0-3.6-0.9-5-2.6c-1.4-1.7-2.1-3.9-2.1-6.4c0-4.4,2-7.9,5.9-10.4c3.9-2.5,8.3-4.8,13-6.9c4.7-2,9.1-4.5,13-7.3
		c3.9-2.8,5.9-6.8,5.9-11.8c0-0.6-0.8-2.2-2.4-4.7c-1.6-2.5-5.8-3.8-12.8-3.8c-3.2,0-6.8,1.8-10.9,5.4c-4.1,3.6-8,8.5-11.8,14.7
		c-3.8,6.2-7,13.4-9.5,21.8c-2.5,8.4-3.8,17.5-3.8,27.2c0,8.2,1.5,15.6,4.5,22.3c3,6.6,6.9,12.2,11.6,16.8
		c4.7,4.6,10.2,8.1,16.6,10.7c6.3,2.5,12.8,3.8,19.4,3.8c4.7,0,9.9-1,15.4-3.1c5.5-2,10.7-4.3,15.6-6.6c4.9-2.4,9.2-4.6,12.8-6.6
		c3.6-2,5.9-3.1,6.9-3.1s2,0.5,3.1,1.4C1356.3-546.4,1357-545.4,1357.3-544.5z"/>
	<path class="st0" d="M1508.4-536.4c0,3.5-1.3,5.8-3.8,7.1c-2.5,1.3-3.8,3-3.8,5.2c-0.3-0.3,0.3,1.4,1.9,5.2c1.6,3.8,3,7.7,4.3,11.8
		c2.2,8.5,4.2,15.9,5.9,22.3c1.7,6.3,3.2,12.1,4.3,17.5c1.1,5.4,2,10.7,2.6,16.1c0.6,5.4,1,11.4,1,18c0,6.6-1.1,13.4-3.3,20.4
		c-2.2,6.9-5.4,13.1-9.5,18.5c-4.1,5.4-9.2,9.8-15.2,13.3c-6,3.5-12.8,5.2-20.4,5.2c-11.7,0-20.9-2.4-27.7-7.1
		c-6.8-4.7-11.9-10.1-15.4-16.1c-3.5-6-5.7-11.9-6.6-17.8c-0.9-5.8-1.4-9.7-1.4-11.6c0-11.7,3-23.4,9-35c6-11.7,12.6-22.3,19.9-31.7
		c7.3-9.5,13.9-17.4,19.9-23.7c6-6.3,9-9.9,9-10.9l-5.2-15.6c-3.2,3.8-5.9,8-8.3,12.6c-2.4,4.6-4.9,8.8-7.6,12.8
		c-2.7,3.9-5.8,7.3-9.5,9.9c-3.6,2.7-8.1,4-13.5,4c-5.7,0-11.4-1.7-17.1-5.2c-5.7-3.5-10.7-8.7-15.2-15.6c-4.4-6.9-8-15.3-10.7-25.1
		c-2.7-9.8-4-21.2-4-34.1c0-7.3,1.1-16.3,3.3-27.2c2.2-10.9,5.7-21.4,10.4-31.5c4.7-10.1,10.7-18.7,17.8-25.8s15.4-10.7,24.9-10.7
		c5.4,0,10.3,0.9,14.9,2.8c4.6,1.9,6.9,4.3,6.9,7.1c0,2.5-0.5,4.6-1.4,6.2c-0.9,1.6-2.2,3.2-3.8,4.7c-1-0.6-2-1.3-3.1-1.9
		c-1.1-0.6-2.6-1-4.5-1c-6.9,0-13.2,3.1-18.7,9.2c-5.5,6.2-10.2,13.7-14,22.7s-6.7,18.4-8.8,28.2c-2,9.8-3.1,18.3-3.1,25.6
		c0,16.1,2.7,28.3,8.1,36.7c5.4,8.4,11,12.6,17,12.6c2.8,0,5.9-2.1,9.2-6.4c3.3-4.3,6.5-9,9.5-14.2c3-5.2,5.6-10.2,7.8-14.9
		c2.2-4.7,3.5-7.6,3.8-8.5c0.6-3.1,1-6.8,1-10.9c0-3.5-0.1-7.3-0.2-11.6c-0.2-4.3-0.2-8.6-0.2-13c0-8.2,0.6-15.1,1.9-20.6
		c1.3-5.5,4.4-8.3,9.5-8.3c5,0,8.7,1.5,10.9,4.5c2.2,3,3.3,6.6,3.3,10.7c0,2.8-0.1,6.2-0.2,10.2c-0.2,3.9-0.2,7.7-0.2,11.4
		c0,3.6-0.1,6.8-0.2,9.5c-0.2,2.7-0.2,4.3-0.2,5c0,1.9,0.2,4.7,0.7,8.3c0.5,3.6,0.9,7.3,1.4,10.9c0.5,3.6,0.9,6.9,1.4,9.9
		c0.5,3,0.9,5,1.2,5.9c0.3,0.9,0.8,2.4,1.4,4.3c0.6,1.9,1.3,3.3,1.9,4.3c0.3-0.6,1-1.3,1.9-2.1c0.9-0.8,1.7-1.5,2.4-2.1
		c1.6,0.9,3.1,2.8,4.5,5.4C1507.6-538.2,1508.4-536.7,1508.4-536.4z M1492.3-476.3c-1.3-5-2.7-10.1-4.3-15.2
		c-1.6-5-3.2-10.3-4.7-15.6c-5.4,6.6-10.5,13-15.4,19.2c-4.9,6.2-9.3,12.2-13.3,18.2c-3.9,6-7.1,12.2-9.5,18.7
		c-2.4,6.5-3.5,13.3-3.5,20.6c0,9.8,2.8,17.8,8.3,24.2c5.5,6.3,11.6,9.5,18.2,9.5c7.3,0,14.1-2.7,20.6-8c6.5-5.4,9.7-13.1,9.7-23.2
		c0-6.6-0.2-12.2-0.5-16.6c-0.3-4.4-0.7-8.3-1.2-11.6c-0.5-3.3-1.1-6.5-1.9-9.5C1494.1-468.6,1493.2-472.2,1492.3-476.3z"/>
	<path class="st0" d="M1665.1-536.4c0,3.5-1.3,5.8-3.8,7.1c-2.5,1.3-3.8,3-3.8,5.2c-0.3-0.3,0.3,1.4,1.9,5.2c1.6,3.8,3,7.7,4.3,11.8
		c2.2,8.5,4.2,15.9,5.9,22.3c1.7,6.3,3.2,12.1,4.3,17.5c1.1,5.4,2,10.7,2.6,16.1c0.6,5.4,1,11.4,1,18c0,6.6-1.1,13.4-3.3,20.4
		c-2.2,6.9-5.4,13.1-9.5,18.5c-4.1,5.4-9.2,9.8-15.2,13.3c-6,3.5-12.8,5.2-20.4,5.2c-11.7,0-20.9-2.4-27.7-7.1
		c-6.8-4.7-11.9-10.1-15.4-16.1c-3.5-6-5.7-11.9-6.6-17.8c-0.9-5.8-1.4-9.7-1.4-11.6c0-11.7,3-23.4,9-35c6-11.7,12.6-22.3,19.9-31.7
		c7.3-9.5,13.9-17.4,19.9-23.7c6-6.3,9-9.9,9-10.9l-5.2-15.6c-3.2,3.8-5.9,8-8.3,12.6c-2.4,4.6-4.9,8.8-7.6,12.8
		c-2.7,3.9-5.8,7.3-9.5,9.9c-3.6,2.7-8.1,4-13.5,4c-5.7,0-11.4-1.7-17.1-5.2c-5.7-3.5-10.7-8.7-15.2-15.6c-4.4-6.9-8-15.3-10.7-25.1
		c-2.7-9.8-4-21.2-4-34.1c0-7.3,1.1-16.3,3.3-27.2c2.2-10.9,5.7-21.4,10.4-31.5c4.7-10.1,10.7-18.7,17.8-25.8s15.4-10.7,24.9-10.7
		c5.4,0,10.3,0.9,14.9,2.8c4.6,1.9,6.9,4.3,6.9,7.1c0,2.5-0.5,4.6-1.4,6.2c-0.9,1.6-2.2,3.2-3.8,4.7c-1-0.6-2-1.3-3.1-1.9
		c-1.1-0.6-2.6-1-4.5-1c-6.9,0-13.2,3.1-18.7,9.2c-5.5,6.2-10.2,13.7-14,22.7s-6.7,18.4-8.8,28.2c-2,9.8-3.1,18.3-3.1,25.6
		c0,16.1,2.7,28.3,8.1,36.7c5.4,8.4,11,12.6,17,12.6c2.8,0,5.9-2.1,9.2-6.4c3.3-4.3,6.5-9,9.5-14.2c3-5.2,5.6-10.2,7.8-14.9
		c2.2-4.7,3.5-7.6,3.8-8.5c0.6-3.1,1-6.8,1-10.9c0-3.5-0.1-7.3-0.2-11.6c-0.2-4.3-0.2-8.6-0.2-13c0-8.2,0.6-15.1,1.9-20.6
		c1.3-5.5,4.4-8.3,9.5-8.3c5,0,8.7,1.5,10.9,4.5c2.2,3,3.3,6.6,3.3,10.7c0,2.8-0.1,6.2-0.2,10.2c-0.2,3.9-0.2,7.7-0.2,11.4
		c0,3.6-0.1,6.8-0.2,9.5c-0.2,2.7-0.2,4.3-0.2,5c0,1.9,0.2,4.7,0.7,8.3c0.5,3.6,0.9,7.3,1.4,10.9c0.5,3.6,0.9,6.9,1.4,9.9
		c0.5,3,0.9,5,1.2,5.9c0.3,0.9,0.8,2.4,1.4,4.3c0.6,1.9,1.3,3.3,1.9,4.3c0.3-0.6,1-1.3,1.9-2.1c0.9-0.8,1.7-1.5,2.4-2.1
		c1.6,0.9,3.1,2.8,4.5,5.4C1664.4-538.2,1665.1-536.7,1665.1-536.4z M1649-476.3c-1.3-5-2.7-10.1-4.3-15.2c-1.6-5-3.2-10.3-4.7-15.6
		c-5.4,6.6-10.5,13-15.4,19.2c-4.9,6.2-9.3,12.2-13.3,18.2c-3.9,6-7.1,12.2-9.5,18.7c-2.4,6.5-3.5,13.3-3.5,20.6
		c0,9.8,2.8,17.8,8.3,24.2c5.5,6.3,11.6,9.5,18.2,9.5c7.3,0,14.1-2.7,20.6-8c6.5-5.4,9.7-13.1,9.7-23.2c0-6.6-0.2-12.2-0.5-16.6
		c-0.3-4.4-0.7-8.3-1.2-11.6c-0.5-3.3-1.1-6.5-1.9-9.5C1650.8-468.6,1650-472.2,1649-476.3z"/>
	<path class="st0" d="M1803.4-716.4c-4.1,21.8-7.9,42.8-11.4,63c-1.6,8.5-3.2,17.5-4.7,26.8c-1.6,9.3-3.1,18.5-4.5,27.5
		c-1.4,9-2.7,17.5-3.8,25.6c-1.1,8-2,15.4-2.6,22c-1.3,10.1-2.2,21.6-2.8,34.6c-0.6,12.9-1.3,25.3-1.9,36.9c-0.6,13.6-1,27.3-1,41.2
		c0,2.8-0.3,6-0.9,9.5c-0.6,3.5-0.9,6.9-0.9,10.4c0,3.1-0.7,5.8-2.1,8c-1.4,2.2-3.5,3.3-6.4,3.3c-2.5,0-4.5-2-5.9-5.9
		c-1.4-4-2.6-8.5-3.5-13.7c-0.9-5.2-1.6-10.4-1.9-15.6c-0.3-5.2-0.5-8.9-0.5-11.1c0-2.5,0-5.6,0-9.2c0-3.6,0.2-9,0.7-16.1
		s1.2-16.4,2.1-27.9c1-11.5,2.4-26.6,4.3-45.2c0-0.3-2.1-1.9-6.4-4.7c-4.3-2.8-9.5-6.4-15.6-10.7c-6.1-4.3-12.5-8.9-18.9-14
		c-6.5-5-11.9-9.9-16.3-14.7c-0.6-0.6-1.6-2-2.8-4.3c-1.3-2.2-1.9-4.9-1.9-8c0-1.6,0.8-3.2,2.4-5c1.6-1.7,3.3-2.6,5.2-2.6
		c1.3,0,2.5,0.6,3.8,1.9c7.3,6.3,15.6,13.3,25.1,21.1c9.5,7.7,18.8,14.8,27.9,21.1c0.6-5.7,2-14.4,4-26c2-11.7,4.2-24.2,6.4-37.7
		c2.2-13.4,4.3-26.4,6.4-39.1c2-12.6,3.5-22.7,4.5-30.3c0-1.3,0.3-3.3,1-6.2c0.6-2.8,1.6-5.7,2.8-8.5c1.3-2.8,2.7-5.3,4.3-7.3
		c1.6-2,3.3-3.1,5.2-3.1c0.9,0,3,0.9,6.1,2.6C1801.8-726.3,1803.4-722.4,1803.4-716.4z"/>
</g>
<g>
	<path class="st1" d="M324.8,367.6c0,17-3.9,28.3-11.8,33.9c-7.9,5.5-21.2,8.3-39.8,8.3c-6.3,0-13.8-0.9-22.5-2.6
		c-8.7-1.7-17.1-4.3-25.1-7.8c-8-3.5-14.8-7.7-20.4-12.8c-5.5-5-8.3-10.9-8.3-17.5c0-0.3,0.2-2,0.7-5c0.5-3,1.2-6.2,2.1-9.5
		c0.9-3.3,2.1-6.3,3.5-9c1.4-2.7,2.9-4,4.5-4c3.1,0,5,0.9,5.4,2.6c0.5,1.7,0.7,4.7,0.7,8.8c0,5.7,2,10.7,5.9,15.2
		c3.9,4.4,8.8,8.2,14.5,11.4c5.7,3.2,11.8,5.5,18.2,7.1c6.5,1.6,12.2,2.4,17.3,2.4c4.1,0,8.3-0.2,12.6-0.7c4.3-0.5,8.1-1.5,11.6-3.1
		c3.5-1.6,6.2-3.8,8.3-6.6c2-2.8,3.1-6.6,3.1-11.4c0-4.1-0.4-8.3-1.2-12.6c-0.8-4.3-2.4-9.9-4.7-16.8c-2.4-6.9-5.8-15.9-10.2-26.8
		c-4.4-10.9-10.1-25-17.1-42.4c-14.8-36.6-24.5-64-28.9-82.2c-4.4-18.2-6.8-27.9-7.1-29.1c-2.5,0.3-5.4,1.1-8.5,2.4
		c-3.2,1.3-6.4,2.6-9.7,4c-3.3,1.4-6.6,2.8-9.7,4c-3.2,1.3-5.8,2.4-8,3.3c-6.6,2.5-12.6,5.4-18,8.8c-5.4,3.3-10.1,6.5-14.2,9.5
		c-4.1,3-7.6,5.5-10.4,7.6c-2.8,2.1-5.2,3.1-7.1,3.1c-4.7,0-7.6-2.2-8.5-6.6c-0.9-4.4-1.4-8.2-1.4-11.4c0-3.5,3.9-7.5,11.8-12.1
		c7.9-4.6,17.8-9.2,29.8-14c12-4.7,25-9.4,39.1-14c14-4.6,27.2-8.6,39.5-12.1c12.3-3.5,22.7-6.3,31.3-8.5c8.5-2.2,13.3-3.3,14.2-3.3
		c2.2,0,3.5,0.6,4,1.9c0.5,1.3,0.7,2.4,0.7,3.3c0,1.9-2.3,4.1-6.9,6.6c-4.6,2.5-9.9,5.2-16.1,8c-6.2,2.8-12.6,5.5-19.2,8.1
		c-6.6,2.5-12,4.6-16.1,6.2l-5.2,1.9c1.6,2.5,3,4.9,4.3,7.1c1.3,2.2,2.6,5,4,8.5c1.4,3.5,3.2,8,5.2,13.5c2,5.5,5,12.7,8.8,21.6
		c6.9,17,13.7,34.1,20.4,51.1s12.6,32.9,17.8,47.6c5.2,14.7,9.3,27.6,12.3,38.8C323.3,353.5,324.8,361.9,324.8,367.6z"/>
	<path class="st1" d="M451.3,298.9c0,6.9-0.9,13.6-2.8,19.9c-1.9,6.3-4.4,11.8-7.6,16.6c-3.2,4.7-6.9,8.5-11.1,11.1
		c-4.3,2.7-8.9,4-14,4c-8.8,0-15.8-2.5-20.8-7.6c-5.1-5-8.9-10.9-11.6-17.5c-2.7-6.6-4.4-13.3-5.2-20.1c-0.8-6.8-1.2-11.9-1.2-15.4
		c0-5.7,0.9-12.1,2.6-19.2c1.7-7.1,4.1-13.7,7.1-19.7c3-6,6.4-11,10.2-15.2c3.8-4.1,7.7-6.2,11.8-6.2c0.9,0,2.4,0.3,4.5,0.9
		c2,0.6,4.2,1.6,6.4,2.8c2.2,1.3,4.2,2.8,5.9,4.7c1.7,1.9,2.9,4.1,3.5,6.6c3.5,0.3,6.9,1.6,10.4,3.8c3.5,2.2,5.4,3.9,5.7,5.2
		c2.5,8.2,4.2,16.4,5,24.6C450.9,286.8,451.3,293.6,451.3,298.9z M430,290.4c0-4.7-0.5-9.7-1.4-14.9c-1-5.2-2.8-10.5-5.7-15.9
		c-0.6,0.3-1.4,0.5-2.4,0.5c-1.3,0-2.3-0.2-3.1-0.5c-0.8-0.3-1.5-0.5-2.1-0.5c-3.8,0-6.8,1-9,3.1c-2.2,2.1-3.9,4.7-5,8
		c-1.1,3.3-1.8,6.9-2.1,10.7c-0.3,3.8-0.5,7.4-0.5,10.9c0,3.5,0.1,7.3,0.5,11.6c0.3,4.3,1,8.3,2.1,12.1c1.1,3.8,2.6,7,4.5,9.7
		c1.9,2.7,4.4,4,7.6,4c3.2,0,5.8-1.7,8.1-5c2.2-3.3,3.9-7.2,5.2-11.6c1.3-4.4,2.1-8.8,2.6-13C429.7,295.4,430,292.3,430,290.4z"/>
	<path class="st1" d="M650.7,313.6c1.6,1.6,2.4,2.5,2.4,2.8c0,0.6-0.9,2.5-2.6,5.7c-1.7,3.2-4,6.5-6.9,9.9c-2.8,3.5-5.9,6.6-9.2,9.2
		c-3.3,2.7-6.6,4-9.7,4c-6.6,0-12-1.3-16.1-4c-4.1-2.7-7.5-6.1-10.2-10.2c-2.7-4.1-4.7-8.6-6.2-13.5c-1.4-4.9-2.6-9.6-3.5-14
		c-0.6-2.2-1.3-3.3-1.9-3.3c-0.9,0-2.8,3.4-5.7,10.2c-2.8,6.8-5.9,14.2-9.2,22.3c-3.3,8-6.5,15.5-9.5,22.3c-3,6.8-5,10.2-5.9,10.2
		c-5.7,0-10.5-2.4-14.5-7.3c-3.9-4.9-7.1-10.6-9.5-17.1c-2.4-6.5-4.2-13.1-5.4-19.9c-1.3-6.8-2-12.1-2.4-15.9
		c-0.9-8.5-3-22.7-6.2-42.6c-3.2-19.9-5.8-44-8-72.5c-0.6-6-1.3-11.4-2.1-16.3c-0.8-4.9-1.7-10.3-2.6-16.3c-1-6-1.8-12.8-2.4-20.4
		c-0.6-7.6-0.9-16.9-0.9-27.9c0-0.6,0.1-2.7,0.5-6.2c0.3-3.5,0.8-7.3,1.4-11.4c0.6-4.1,1.6-7.7,3.1-10.9c1.4-3.2,3.1-4.7,5-4.7
		c2.2,0,4.3,1.3,6.1,4c1.9,2.7,3.6,5.8,5,9.2c1.4,3.5,2.4,6.8,3.1,9.9c0.6,3.2,1,5.4,1,6.6c0,4.7-0.3,9.2-1,13.3
		c-0.6,4.1-0.9,7.9-0.9,11.4c0,4.7,0.4,10.7,1.2,18c0.8,7.3,1.8,14.7,3.1,22.3c1.3,7.6,2.4,14.9,3.3,22c0.9,7.1,1.7,12.9,2.4,17.3
		c0,0.3,0.3,2.5,0.9,6.6c0.6,4.1,1.3,9.2,2.1,15.4c0.8,6.2,1.6,12.8,2.4,19.9c0.8,7.1,1.7,14,2.6,20.8c1,6.8,1.8,12.8,2.6,18
		c0.8,5.2,1.3,8.9,1.7,11.1c0,0.9,0.2,2.3,0.7,4c0.5,1.7,0.9,3.7,1.4,5.9c0.5,2.2,1,4.3,1.6,6.2c0.6,1.9,1.4,3.3,2.4,4.3
		c1.9-3.8,4.3-9.6,7.3-17.5c3-7.9,6.2-15.9,9.5-24.2c3.3-8.2,6.5-15.4,9.5-21.6c3-6.2,5.6-9.2,7.8-9.2c2.5,0,4.6,0.5,6.2,1.4
		c1.6,0.9,3.6,1.7,6.1,2.4c3.2,1.3,4.7,2.9,4.7,5c0,2.1,0.3,4.5,0.9,7.3c0.6,3.8,1.7,8.8,3.1,14.9c1.4,6.2,3.1,12.2,5,18
		c1.9,5.8,4.1,10.8,6.6,14.9c2.5,4.1,5.1,6.2,7.6,6.2c1.3,0,3-1.7,5.2-5c2.2-3.3,5.2-5.1,9-5.4c0.6,0,1.7,0.4,3.3,1.2
		C647.5,311.3,649.1,312.4,650.7,313.6z"/>
	<path class="st1" d="M823.1,343c0,1.9-0.6,3.8-1.9,5.7s-2.8,3.6-4.5,5.2c-1.7,1.6-3.6,2.9-5.7,4c-2,1.1-3.9,1.7-5.4,1.7
		c-5.4,0-12.2-1.2-20.6-3.6c-8.4-2.4-15.1-6.1-20.1-11.1c-5.4-5.4-10.1-11.8-14.2-19.2c-4.1-7.4-8.7-18.4-13.7-32.9
		c-3.5,13.9-7.5,27.6-12.1,41.2c-4.6,13.6-11.9,26-22,37.4c-0.6,0.6-1.6,0.9-2.8,0.9c-2.2,0-4.6-1.1-7.1-3.3
		c-2.5-2.2-3.8-4.4-3.8-6.6c0-2.2-0.2-7.3-0.7-15.4c-0.5-8-1-17-1.7-27c-0.6-9.9-1.2-20-1.7-30.3c-0.5-10.3-0.7-18.7-0.7-25.3
		c0-3.2,0.1-7.3,0.5-12.6c0.3-5.2,1.3-9.7,2.8-13.5c0.3-0.6,1.5-1.9,3.5-3.8c2-1.9,4.3-2.8,6.9-2.8c2.2,0,3.5,1.4,3.8,4.3
		c0.3,2.8,0.5,6,0.5,9.5v74.8c0,1.6,0.2,3.8,0.7,6.6c0.5,2.8,1.2,4.9,2.1,6.2c3.5-7.6,6.7-16.5,9.7-26.8c3-10.3,5.9-20,8.8-29.4
		c2.8-9.3,5.7-17.2,8.5-23.7c2.8-6.5,5.7-9.7,8.5-9.7c3.2,0,5.7,0.6,7.6,1.9c1.9,1.3,3.5,3.8,4.7,7.6c1.6,9.2,2.8,17.3,3.8,24.4
		c0.9,7.1,2.1,13.5,3.5,19.2c1.4,5.7,3.5,11,6.2,15.9c2.7,4.9,6.4,9.4,11.1,13.5c4.4,4.1,9.4,7.1,14.9,9c5.5,1.9,10.3,2.8,14.4,2.8
		c1.9,0,3.9-0.4,6.2-1.2c2.2-0.8,3.8-1.2,4.7-1.2c1.3,0,2.4,1.1,3.5,3.3C822.5,340.9,823.1,342.4,823.1,343z"/>
	<path class="st1" d="M1200.1,365.3c0,2.2-1,3.9-2.8,5.2c-2.8,1.9-7.7,4.6-14.7,8.1c-6.9,3.5-14.6,7.1-23,10.9
		c-8.4,3.8-17.1,7.7-26.3,11.8c-9.2,4.1-17.5,7.7-25.1,10.9c-7.6,3.2-14,5.8-19.2,7.8c-5.2,2-8,3.1-8.3,3.1c-2.5,0-5.3-2.8-8.3-8.5
		c-3-5.7-5.9-13.3-8.8-23c-2.8-9.6-5.5-20.8-8-33.6c-2.5-12.8-4.8-26.3-6.9-40.5c-2.1-14.2-3.6-28.7-4.7-43.3
		c-1.1-14.7-1.7-28.8-1.7-42.4c0-20.2,1-36,3.1-47.4c2-11.4,4.4-19.9,7.1-25.6c2.7-5.7,5.1-9.2,7.3-10.7c2.2-1.4,3.5-2.1,3.8-2.1
		c2.5,0,4.6,1.1,6.2,3.3c1.6,2.2,2.4,4.4,2.4,6.6c0,1.3-0.6,3.5-1.9,6.6c-1.3,3.2-2.6,7.6-4,13.3c-1.4,5.7-2.7,13-3.8,21.8
		c-1.1,8.8-1.7,19.6-1.7,32.2c0,11.4,0.6,23.2,1.7,35.5c1.1,12.3,2.6,24.5,4.5,36.5c1.9,12,4,23.4,6.4,34.1
		c2.4,10.7,4.8,20.2,7.3,28.4c2.5,8.2,4.9,14.8,7.1,19.7c2.2,4.9,4.2,7.3,6.1,7.3c0.3,0,2.4-0.8,6.2-2.4c3.8-1.6,8.5-3.6,14.2-5.9
		c5.7-2.4,11.9-4.7,18.7-7.1c6.8-2.4,13.7-4.5,20.6-6.4c3.2-0.9,6.9-2,11.1-3.1c4.3-1.1,8.3-2.1,12.1-3.1c3.8-0.9,7.2-1.7,10.2-2.4
		c3-0.6,4.8-0.9,5.4-0.9C1197.5,360,1200.1,361.8,1200.1,365.3z"/>
	<path class="st1" d="M1357.3,351.5c0.3,0.6,0.5,1.6,0.5,2.8c0,1.9-1.4,4.7-4.3,8.5c-0.9,1.3-3,3.3-6.2,6.2
		c-3.2,2.8-7.4,5.7-12.8,8.5c-5.4,2.8-11.9,5.4-19.7,7.6c-7.7,2.2-16.8,3.3-27.2,3.3c-7.3,0-14.4-1.7-21.3-5
		c-7-3.3-13.1-8.2-18.5-14.7c-5.4-6.5-9.8-14.5-13.3-24.2c-3.5-9.6-5.2-20.9-5.2-33.9c0-12.3,1.6-23.8,4.7-34.6
		c3.2-10.7,7.2-20.2,12.1-28.4c4.9-8.2,10.3-14.7,16.4-19.4c6-4.7,11.8-7.1,17.5-7.1c5,0,10.2,1,15.4,3.1c5.2,2.1,9.9,4.7,14.2,7.8
		c4.3,3.2,7.6,6.7,10.2,10.7c2.5,3.9,3.8,8,3.8,12.1c0,4.7-2.1,9.6-6.4,14.7c-4.3,5.1-9.4,9.7-15.4,14c-6,4.3-12,7.7-18,10.4
		c-6,2.7-10.7,4-14.2,4c-1.9,0-3.6-0.9-5-2.6c-1.4-1.7-2.1-3.9-2.1-6.4c0-4.4,2-7.9,5.9-10.4c3.9-2.5,8.3-4.8,13-6.9
		c4.7-2,9.1-4.5,13-7.3c3.9-2.8,5.9-6.8,5.9-11.8c0-0.6-0.8-2.2-2.4-4.7c-1.6-2.5-5.8-3.8-12.8-3.8c-3.2,0-6.8,1.8-10.9,5.4
		c-4.1,3.6-8,8.5-11.8,14.7c-3.8,6.2-7,13.4-9.5,21.8c-2.5,8.4-3.8,17.5-3.8,27.2c0,8.2,1.5,15.6,4.5,22.3c3,6.6,6.9,12.2,11.6,16.8
		c4.7,4.6,10.2,8.1,16.6,10.7c6.3,2.5,12.8,3.8,19.4,3.8c4.7,0,9.9-1,15.4-3.1c5.5-2,10.7-4.3,15.6-6.6s9.2-4.6,12.8-6.6
		c3.6-2,5.9-3.1,6.9-3.1s2,0.5,3.1,1.4C1356.3,349.6,1357,350.6,1357.3,351.5z"/>
	<path class="st1" d="M1508.4,359.6c0,3.5-1.3,5.8-3.8,7.1c-2.5,1.3-3.8,3-3.8,5.2c-0.3-0.3,0.3,1.4,1.9,5.2c1.6,3.8,3,7.7,4.3,11.8
		c2.2,8.5,4.2,15.9,5.9,22.3c1.7,6.3,3.2,12.1,4.3,17.5c1.1,5.4,2,10.7,2.6,16.1c0.6,5.4,1,11.4,1,18c0,6.6-1.1,13.4-3.3,20.4
		c-2.2,6.9-5.4,13.1-9.5,18.5c-4.1,5.4-9.2,9.8-15.2,13.3c-6,3.5-12.8,5.2-20.4,5.2c-11.7,0-20.9-2.4-27.7-7.1
		c-6.8-4.7-11.9-10.1-15.4-16.1c-3.5-6-5.7-11.9-6.6-17.8c-0.9-5.8-1.4-9.7-1.4-11.6c0-11.7,3-23.4,9-35c6-11.7,12.6-22.3,19.9-31.7
		c7.3-9.5,13.9-17.4,19.9-23.7c6-6.3,9-9.9,9-10.9l-5.2-15.6c-3.2,3.8-5.9,8-8.3,12.6c-2.4,4.6-4.9,8.8-7.6,12.8
		c-2.7,3.9-5.8,7.3-9.5,9.9c-3.6,2.7-8.1,4-13.5,4c-5.7,0-11.4-1.7-17.1-5.2c-5.7-3.5-10.7-8.7-15.2-15.6c-4.4-6.9-8-15.3-10.7-25.1
		c-2.7-9.8-4-21.2-4-34.1c0-7.3,1.1-16.3,3.3-27.2c2.2-10.9,5.7-21.4,10.4-31.5c4.7-10.1,10.7-18.7,17.8-25.8
		c7.1-7.1,15.4-10.7,24.9-10.7c5.4,0,10.3,0.9,14.9,2.8c4.6,1.9,6.9,4.3,6.9,7.1c0,2.5-0.5,4.6-1.4,6.2c-0.9,1.6-2.2,3.2-3.8,4.7
		c-1-0.6-2-1.3-3.1-1.9c-1.1-0.6-2.6-0.9-4.5-0.9c-6.9,0-13.2,3.1-18.7,9.2c-5.5,6.2-10.2,13.7-14,22.7s-6.7,18.4-8.8,28.2
		c-2,9.8-3.1,18.3-3.1,25.6c0,16.1,2.7,28.3,8.1,36.7c5.4,8.4,11,12.6,17,12.6c2.8,0,5.9-2.1,9.2-6.4c3.3-4.3,6.5-9,9.5-14.2
		c3-5.2,5.6-10.2,7.8-14.9c2.2-4.7,3.5-7.6,3.8-8.5c0.6-3.1,1-6.8,1-10.9c0-3.5-0.1-7.3-0.2-11.6c-0.2-4.3-0.2-8.6-0.2-13
		c0-8.2,0.6-15.1,1.9-20.6c1.3-5.5,4.4-8.3,9.5-8.3c5,0,8.7,1.5,10.9,4.5c2.2,3,3.3,6.6,3.3,10.7c0,2.8-0.1,6.2-0.2,10.2
		c-0.2,3.9-0.2,7.7-0.2,11.4c0,3.6-0.1,6.8-0.2,9.5c-0.2,2.7-0.2,4.3-0.2,5c0,1.9,0.2,4.7,0.7,8.3c0.5,3.6,0.9,7.3,1.4,10.9
		c0.5,3.6,0.9,6.9,1.4,9.9c0.5,3,0.9,5,1.2,5.9c0.3,0.9,0.8,2.4,1.4,4.3c0.6,1.9,1.3,3.3,1.9,4.3c0.3-0.6,1-1.3,1.9-2.1
		c0.9-0.8,1.7-1.5,2.4-2.1c1.6,0.9,3.1,2.8,4.5,5.4C1507.6,357.8,1508.4,359.3,1508.4,359.6z M1492.3,419.7
		c-1.3-5-2.7-10.1-4.3-15.2c-1.6-5-3.2-10.3-4.7-15.6c-5.4,6.6-10.5,13-15.4,19.2c-4.9,6.2-9.3,12.2-13.3,18.2
		c-3.9,6-7.1,12.2-9.5,18.7c-2.4,6.5-3.5,13.3-3.5,20.6c0,9.8,2.8,17.8,8.3,24.2c5.5,6.3,11.6,9.5,18.2,9.5c7.3,0,14.1-2.7,20.6-8
		c6.5-5.4,9.7-13.1,9.7-23.2c0-6.6-0.2-12.2-0.5-16.6c-0.3-4.4-0.7-8.3-1.2-11.6c-0.5-3.3-1.1-6.5-1.9-9.5
		C1494.1,427.4,1493.2,423.8,1492.3,419.7z"/>
	<path class="st1" d="M1665.1,359.6c0,3.5-1.3,5.8-3.8,7.1c-2.5,1.3-3.8,3-3.8,5.2c-0.3-0.3,0.3,1.4,1.9,5.2c1.6,3.8,3,7.7,4.3,11.8
		c2.2,8.5,4.2,15.9,5.9,22.3c1.7,6.3,3.2,12.1,4.3,17.5c1.1,5.4,2,10.7,2.6,16.1c0.6,5.4,1,11.4,1,18c0,6.6-1.1,13.4-3.3,20.4
		c-2.2,6.9-5.4,13.1-9.5,18.5c-4.1,5.4-9.2,9.8-15.2,13.3c-6,3.5-12.8,5.2-20.4,5.2c-11.7,0-20.9-2.4-27.7-7.1
		c-6.8-4.7-11.9-10.1-15.4-16.1c-3.5-6-5.7-11.9-6.6-17.8c-0.9-5.8-1.4-9.7-1.4-11.6c0-11.7,3-23.4,9-35c6-11.7,12.6-22.3,19.9-31.7
		c7.3-9.5,13.9-17.4,19.9-23.7c6-6.3,9-9.9,9-10.9l-5.2-15.6c-3.2,3.8-5.9,8-8.3,12.6c-2.4,4.6-4.9,8.8-7.6,12.8
		c-2.7,3.9-5.8,7.3-9.5,9.9c-3.6,2.7-8.1,4-13.5,4c-5.7,0-11.4-1.7-17.1-5.2c-5.7-3.5-10.7-8.7-15.2-15.6c-4.4-6.9-8-15.3-10.7-25.1
		c-2.7-9.8-4-21.2-4-34.1c0-7.3,1.1-16.3,3.3-27.2c2.2-10.9,5.7-21.4,10.4-31.5c4.7-10.1,10.7-18.7,17.8-25.8
		c7.1-7.1,15.4-10.7,24.9-10.7c5.4,0,10.3,0.9,14.9,2.8c4.6,1.9,6.9,4.3,6.9,7.1c0,2.5-0.5,4.6-1.4,6.2c-0.9,1.6-2.2,3.2-3.8,4.7
		c-1-0.6-2-1.3-3.1-1.9c-1.1-0.6-2.6-0.9-4.5-0.9c-6.9,0-13.2,3.1-18.7,9.2c-5.5,6.2-10.2,13.7-14,22.7s-6.7,18.4-8.8,28.2
		c-2,9.8-3.1,18.3-3.1,25.6c0,16.1,2.7,28.3,8.1,36.7c5.4,8.4,11,12.6,17,12.6c2.8,0,5.9-2.1,9.2-6.4c3.3-4.3,6.5-9,9.5-14.2
		c3-5.2,5.6-10.2,7.8-14.9c2.2-4.7,3.5-7.6,3.8-8.5c0.6-3.1,1-6.8,1-10.9c0-3.5-0.1-7.3-0.2-11.6c-0.2-4.3-0.2-8.6-0.2-13
		c0-8.2,0.6-15.1,1.9-20.6c1.3-5.5,4.4-8.3,9.5-8.3c5,0,8.7,1.5,10.9,4.5c2.2,3,3.3,6.6,3.3,10.7c0,2.8-0.1,6.2-0.2,10.2
		c-0.2,3.9-0.2,7.7-0.2,11.4c0,3.6-0.1,6.8-0.2,9.5c-0.2,2.7-0.2,4.3-0.2,5c0,1.9,0.2,4.7,0.7,8.3c0.5,3.6,0.9,7.3,1.4,10.9
		c0.5,3.6,0.9,6.9,1.4,9.9c0.5,3,0.9,5,1.2,5.9c0.3,0.9,0.8,2.4,1.4,4.3c0.6,1.9,1.3,3.3,1.9,4.3c0.3-0.6,1-1.3,1.9-2.1
		c0.9-0.8,1.7-1.5,2.4-2.1c1.6,0.9,3.1,2.8,4.5,5.4C1664.4,357.8,1665.1,359.3,1665.1,359.6z M1649,419.7c-1.3-5-2.7-10.1-4.3-15.2
		c-1.6-5-3.2-10.3-4.7-15.6c-5.4,6.6-10.5,13-15.4,19.2c-4.9,6.2-9.3,12.2-13.3,18.2c-3.9,6-7.1,12.2-9.5,18.7
		c-2.4,6.5-3.5,13.3-3.5,20.6c0,9.8,2.8,17.8,8.3,24.2c5.5,6.3,11.6,9.5,18.2,9.5c7.3,0,14.1-2.7,20.6-8c6.5-5.4,9.7-13.1,9.7-23.2
		c0-6.6-0.2-12.2-0.5-16.6c-0.3-4.4-0.7-8.3-1.2-11.6c-0.5-3.3-1.1-6.5-1.9-9.5C1650.8,427.4,1650,423.8,1649,419.7z"/>
	<path class="st1" d="M1803.4,179.6c-4.1,21.8-7.9,42.8-11.4,63c-1.6,8.5-3.2,17.5-4.7,26.8c-1.6,9.3-3.1,18.5-4.5,27.5
		s-2.7,17.5-3.8,25.6c-1.1,8-2,15.4-2.6,22c-1.3,10.1-2.2,21.6-2.8,34.6c-0.6,12.9-1.3,25.3-1.9,36.9c-0.6,13.6-1,27.3-1,41.2
		c0,2.8-0.3,6-0.9,9.5c-0.6,3.5-0.9,6.9-0.9,10.4c0,3.1-0.7,5.8-2.1,8c-1.4,2.2-3.5,3.3-6.4,3.3c-2.5,0-4.5-2-5.9-5.9
		c-1.4-4-2.6-8.5-3.5-13.7c-0.9-5.2-1.6-10.4-1.9-15.6c-0.3-5.2-0.5-8.9-0.5-11.1c0-2.5,0-5.6,0-9.2c0-3.6,0.2-9,0.7-16.1
		s1.2-16.4,2.1-27.9c1-11.5,2.4-26.6,4.3-45.2c0-0.3-2.1-1.9-6.4-4.7s-9.5-6.4-15.6-10.7c-6.1-4.3-12.5-8.9-18.9-14
		c-6.5-5-11.9-9.9-16.3-14.7c-0.6-0.6-1.6-2-2.8-4.3c-1.3-2.2-1.9-4.9-1.9-8c0-1.6,0.8-3.2,2.4-5c1.6-1.7,3.3-2.6,5.2-2.6
		c1.3,0,2.5,0.6,3.8,1.9c7.3,6.3,15.6,13.3,25.1,21.1c9.5,7.7,18.8,14.8,27.9,21.1c0.6-5.7,2-14.4,4-26c2-11.7,4.2-24.2,6.4-37.7
		c2.2-13.4,4.3-26.4,6.4-39.1c2-12.6,3.5-22.7,4.5-30.3c0-1.3,0.3-3.3,1-6.2c0.6-2.8,1.6-5.7,2.8-8.5c1.3-2.8,2.7-5.3,4.3-7.3
		c1.6-2,3.3-3.1,5.2-3.1c0.9,0,3,0.9,6.1,2.6C1801.8,169.7,1803.4,173.6,1803.4,179.6z"/>
</g>
</svg>
